<?xml version="1.0" encoding="UTF-8" standalone="no"?>
<!-- Created with Inkscape (http://www.inkscape.org/) -->

<svg
   xmlns:dc="http://purl.org/dc/elements/1.1/"
   xmlns:cc="http://creativecommons.org/ns#"
   xmlns:rdf="http://www.w3.org/1999/02/22-rdf-syntax-ns#"
   xmlns:svg="http://www.w3.org/2000/svg"
   xmlns="http://www.w3.org/2000/svg"
   xmlns:sodipodi="http://sodipodi.sourceforge.net/DTD/sodipodi-0.dtd"
   xmlns:inkscape="http://www.inkscape.org/namespaces/inkscape"
   width="933.82001"
   height="926.75616"
   id="svg3361"
   version="1.1"
   inkscape:version="0.47 r22583"
   sodipodi:docname="New document 6">
  <defs
     id="defs3363">
    <inkscape:perspective
       sodipodi:type="inkscape:persp3d"
       inkscape:vp_x="0 : 526.18109 : 1"
       inkscape:vp_y="0 : 1000 : 0"
       inkscape:vp_z="744.09448 : 526.18109 : 1"
       inkscape:persp3d-origin="372.04724 : 350.78739 : 1"
       id="perspective3369" />
    <inkscape:perspective
       id="perspective3297"
       inkscape:persp3d-origin="0.5 : 0.33333333 : 1"
       inkscape:vp_z="1 : 0.5 : 1"
       inkscape:vp_y="0 : 1000 : 0"
       inkscape:vp_x="0 : 0.5 : 1"
       sodipodi:type="inkscape:persp3d" />
  </defs>
  <sodipodi:namedview
     id="base"
     pagecolor="#ffffff"
     bordercolor="#666666"
     borderopacity="1.0"
     inkscape:pageopacity="0.0"
     inkscape:pageshadow="2"
     inkscape:zoom="0.32638889"
     inkscape:cx="893.81249"
     inkscape:cy="610.78952"
     inkscape:document-units="px"
     inkscape:current-layer="g3568"
     showgrid="false"
     inkscape:window-width="1280"
     inkscape:window-height="973"
     inkscape:window-x="0"
     inkscape:window-y="24"
     inkscape:window-maximized="1" />
  <metadata
     id="metadata3366">
    <rdf:RDF>
      <cc:Work
         rdf:about="">
        <dc:format>image/svg+xml</dc:format>
        <dc:type
           rdf:resource="http://purl.org/dc/dcmitype/StillImage" />
        <dc:title></dc:title>
      </cc:Work>
    </rdf:RDF>
  </metadata>
  <g
     inkscape:label="Layer 1"
     inkscape:groupmode="layer"
     id="layer1"
     transform="translate(137.98271,-47.774792)">
    <g
       id="g3568"
       transform="translate(-24.510638,166.97872)">
      <g
         id="g3659"
         transform="translate(1064.0851,-579.06383)"
         style="fill:#808080">
        <g
           id="g3661"
           transform="translate(-530.04255,229.78723)"
           style="fill:#808080">
          <path
             sodipodi:type="arc"
             style="color:#000000;fill:#808080;fill-opacity:1;fill-rule:nonzero;stroke:none;stroke-width:0.75;marker:none;visibility:visible;display:inline;overflow:visible;enable-background:accumulate"
             id="path3663"
             sodipodi:cx="277.14285"
             sodipodi:cy="212.36218"
             sodipodi:rx="77.14286"
             sodipodi:ry="77.14286"
             d="m 354.28571,212.36218 c 0,42.60483 -34.53803,77.14286 -77.14286,77.14286 -42.60482,0 -77.14286,-34.53803 -77.14286,-77.14286 0,-42.60482 34.53804,-77.14286 77.14286,-77.14286 42.60483,0 77.14286,34.53804 77.14286,77.14286 z"
             transform="translate(-451.15172,100.98101)" />
          <path
             style="color:#000000;fill:#808080;fill-opacity:1;fill-rule:nonzero;stroke:none;stroke-width:1.76986504;marker:none;visibility:visible;display:inline;overflow:visible;enable-background:accumulate"
             d="m -174.02449,395.4433 c -93.9975,0 -171.33183,71.22361 -181,162.65625 l 34.8125,0 c 9.48663,-72.29381 71.30145,-128.09375 146.1875,-128.09375 74.88605,0 136.72786,55.79994 146.21875,128.09375 l 34.8125,0 C -2.66496,466.66691 -80.02699,395.4433 -174.02449,395.4433 z"
             id="path3665" />
          <path
             id="path3667"
             transform="translate(24.510638,-166.97872)"
             d="m -198.53125,560.25 c -59.20404,0 -107.1875,85.74932 -107.1875,191.5 0,3.23443 0.0706,6.43353 0.15625,9.625 21.5526,-36.70337 61.39132,-61.34375 107.03125,-61.34375 45.63036,0 85.50674,24.62188 107.0625,61.3125 0.08505,-3.18103 0.125,-6.37 0.125,-9.59375 0,-105.75068 -47.98346,-191.5 -107.1875,-191.5 z"
             style="color:#000000;fill:#808080;fill-opacity:1;fill-rule:nonzero;stroke:none;stroke-width:0.89422607;marker:none;visibility:visible;display:inline;overflow:visible;enable-background:accumulate" />
        </g>
        <g
           transform="matrix(-1,0,0,-1,-878.06028,1622.8164)"
           id="g3669"
           style="fill:#808080;fill-opacity:1">
          <path
             transform="translate(-451.15172,100.98101)"
             d="m 354.28571,212.36218 c 0,42.60483 -34.53803,77.14286 -77.14286,77.14286 -42.60482,0 -77.14286,-34.53803 -77.14286,-77.14286 0,-42.60482 34.53804,-77.14286 77.14286,-77.14286 42.60483,0 77.14286,34.53804 77.14286,77.14286 z"
             sodipodi:ry="77.14286"
             sodipodi:rx="77.14286"
             sodipodi:cy="212.36218"
             sodipodi:cx="277.14285"
             id="path3671"
             style="color:#000000;fill:#808080;fill-opacity:1;fill-rule:nonzero;stroke:none;stroke-width:0.75;marker:none;visibility:visible;display:inline;overflow:visible;enable-background:accumulate"
             sodipodi:type="arc" />
          <path
             id="path3673"
             d="m -174.02449,395.4433 c -93.9975,0 -171.33183,71.22361 -181,162.65625 l 34.8125,0 c 9.48663,-72.29381 71.30145,-128.09375 146.1875,-128.09375 74.88605,0 136.72786,55.79994 146.21875,128.09375 l 34.8125,0 C -2.66496,466.66691 -80.02699,395.4433 -174.02449,395.4433 z"
             style="color:#000000;fill:#808080;fill-opacity:1;fill-rule:nonzero;stroke:none;stroke-width:1.76986504;marker:none;visibility:visible;display:inline;overflow:visible;enable-background:accumulate" />
          <path
             style="color:#000000;fill:#808080;fill-opacity:1;fill-rule:nonzero;stroke:none;stroke-width:0.89422607;marker:none;visibility:visible;display:inline;overflow:visible;enable-background:accumulate"
             d="m -198.53125,560.25 c -59.20404,0 -107.1875,85.74932 -107.1875,191.5 0,3.23443 0.0706,6.43353 0.15625,9.625 21.5526,-36.70337 61.39132,-61.34375 107.03125,-61.34375 45.63036,0 85.50674,24.62188 107.0625,61.3125 0.08505,-3.18103 0.125,-6.37 0.125,-9.59375 0,-105.75068 -47.98346,-191.5 -107.1875,-191.5 z"
             transform="translate(24.510638,-166.97872)"
             id="path3675" />
        </g>
        <g
           transform="matrix(0,1,-1,0,-7.5368363,1100.3106)"
           id="g3677"
           style="fill:#808080;fill-opacity:1">
          <path
             transform="translate(-451.15172,100.98101)"
             d="m 354.28571,212.36218 c 0,42.60483 -34.53803,77.14286 -77.14286,77.14286 -42.60482,0 -77.14286,-34.53803 -77.14286,-77.14286 0,-42.60482 34.53804,-77.14286 77.14286,-77.14286 42.60483,0 77.14286,34.53804 77.14286,77.14286 z"
             sodipodi:ry="77.14286"
             sodipodi:rx="77.14286"
             sodipodi:cy="212.36218"
             sodipodi:cx="277.14285"
             id="path3679"
             style="color:#000000;fill:#808080;fill-opacity:1;fill-rule:nonzero;stroke:none;stroke-width:0.75;marker:none;visibility:visible;display:inline;overflow:visible;enable-background:accumulate"
             sodipodi:type="arc" />
          <path
             id="path3681"
             d="m -174.02449,395.4433 c -93.9975,0 -171.33183,71.22361 -181,162.65625 l 34.8125,0 c 9.48663,-72.29381 71.30145,-128.09375 146.1875,-128.09375 74.88605,0 136.72786,55.79994 146.21875,128.09375 l 34.8125,0 C -2.66496,466.66691 -80.02699,395.4433 -174.02449,395.4433 z"
             style="color:#000000;fill:#808080;fill-opacity:1;fill-rule:nonzero;stroke:none;stroke-width:1.76986504;marker:none;visibility:visible;display:inline;overflow:visible;enable-background:accumulate" />
          <path
             style="color:#000000;fill:#808080;fill-opacity:1;fill-rule:nonzero;stroke:none;stroke-width:0.89422607;marker:none;visibility:visible;display:inline;overflow:visible;enable-background:accumulate"
             d="m -198.53125,560.25 c -59.20404,0 -107.1875,85.74932 -107.1875,191.5 0,3.23443 0.0706,6.43353 0.15625,9.625 21.5526,-36.70337 61.39132,-61.34375 107.03125,-61.34375 45.63036,0 85.50674,24.62188 107.0625,61.3125 0.08505,-3.18103 0.125,-6.37 0.125,-9.59375 0,-105.75068 -47.98346,-191.5 -107.1875,-191.5 z"
             transform="translate(24.510638,-166.97872)"
             id="path3683" />
        </g>
        <g
           id="g3685"
           transform="matrix(0,-1,1,0,-1400.566,752.29296)"
           style="fill:#808080;fill-opacity:1">
          <path
             sodipodi:type="arc"
             style="color:#000000;fill:#808080;fill-opacity:1;fill-rule:nonzero;stroke:none;stroke-width:0.75;marker:none;visibility:visible;display:inline;overflow:visible;enable-background:accumulate"
             id="path3687"
             sodipodi:cx="277.14285"
             sodipodi:cy="212.36218"
             sodipodi:rx="77.14286"
             sodipodi:ry="77.14286"
             d="m 354.28571,212.36218 c 0,42.60483 -34.53803,77.14286 -77.14286,77.14286 -42.60482,0 -77.14286,-34.53803 -77.14286,-77.14286 0,-42.60482 34.53804,-77.14286 77.14286,-77.14286 42.60483,0 77.14286,34.53804 77.14286,77.14286 z"
             transform="translate(-451.15172,100.98101)" />
          <path
             style="color:#000000;fill:#808080;fill-opacity:1;fill-rule:nonzero;stroke:none;stroke-width:1.76986504;marker:none;visibility:visible;display:inline;overflow:visible;enable-background:accumulate"
             d="m -174.02449,395.4433 c -93.9975,0 -171.33183,71.22361 -181,162.65625 l 34.8125,0 c 9.48663,-72.29381 71.30145,-128.09375 146.1875,-128.09375 74.88605,0 136.72786,55.79994 146.21875,128.09375 l 34.8125,0 C -2.66496,466.66691 -80.02699,395.4433 -174.02449,395.4433 z"
             id="path3689" />
          <path
             id="path3691"
             transform="translate(24.510638,-166.97872)"
             d="m -198.53125,560.25 c -59.20404,0 -107.1875,85.74932 -107.1875,191.5 0,3.23443 0.0706,6.43353 0.15625,9.625 21.5526,-36.70337 61.39132,-61.34375 107.03125,-61.34375 45.63036,0 85.50674,24.62188 107.0625,61.3125 0.08505,-3.18103 0.125,-6.37 0.125,-9.59375 0,-105.75068 -47.98346,-191.5 -107.1875,-191.5 z"
             style="color:#000000;fill:#808080;fill-opacity:1;fill-rule:nonzero;stroke:none;stroke-width:0.89422607;marker:none;visibility:visible;display:inline;overflow:visible;enable-background:accumulate" />
        </g>
      </g>
      <g
         id="g3641"
         transform="translate(1050.8936,-585.19149)">
        <g
           transform="translate(-530.04255,229.78723)"
           id="g3576">
          <path
             transform="translate(-451.15172,100.98101)"
             d="m 354.28571,212.36218 c 0,42.60483 -34.53803,77.14286 -77.14286,77.14286 -42.60482,0 -77.14286,-34.53803 -77.14286,-77.14286 0,-42.60482 34.53804,-77.14286 77.14286,-77.14286 42.60483,0 77.14286,34.53804 77.14286,77.14286 z"
             sodipodi:ry="77.14286"
             sodipodi:rx="77.14286"
             sodipodi:cy="212.36218"
             sodipodi:cx="277.14285"
             id="path2901"
             style="color:#000000;fill:#d44117;fill-opacity:1;fill-rule:nonzero;stroke:none;stroke-width:0.75;marker:none;visibility:visible;display:inline;overflow:visible;enable-background:accumulate"
             sodipodi:type="arc" />
          <path
             id="path2903"
             d="m -174.02449,395.4433 c -93.9975,0 -171.33183,71.22361 -181,162.65625 l 34.8125,0 c 9.48663,-72.29381 71.30145,-128.09375 146.1875,-128.09375 74.88605,0 136.72786,55.79994 146.21875,128.09375 l 34.8125,0 C -2.66496,466.66691 -80.02699,395.4433 -174.02449,395.4433 z"
             style="color:#000000;fill:#d44117;fill-opacity:1;fill-rule:nonzero;stroke:none;stroke-width:1.76986504;marker:none;visibility:visible;display:inline;overflow:visible;enable-background:accumulate" />
          <path
             style="color:#000000;fill:#d44117;fill-opacity:1;fill-rule:nonzero;stroke:none;stroke-width:0.89422607;marker:none;visibility:visible;display:inline;overflow:visible;enable-background:accumulate"
             d="m -198.53125,560.25 c -59.20404,0 -107.1875,85.74932 -107.1875,191.5 0,3.23443 0.0706,6.43353 0.15625,9.625 21.5526,-36.70337 61.39132,-61.34375 107.03125,-61.34375 45.63036,0 85.50674,24.62188 107.0625,61.3125 0.08505,-3.18103 0.125,-6.37 0.125,-9.59375 0,-105.75068 -47.98346,-191.5 -107.1875,-191.5 z"
             transform="translate(24.510638,-166.97872)"
             id="path2911" />
        </g>
        <g
           style="fill:#6bb427;fill-opacity:1"
           id="g3581"
           transform="matrix(-1,0,0,-1,-878.06028,1622.8164)">
          <path
             sodipodi:type="arc"
             style="color:#000000;fill:#6bb427;fill-opacity:1;fill-rule:nonzero;stroke:none;stroke-width:0.75;marker:none;visibility:visible;display:inline;overflow:visible;enable-background:accumulate"
             id="path3583"
             sodipodi:cx="277.14285"
             sodipodi:cy="212.36218"
             sodipodi:rx="77.14286"
             sodipodi:ry="77.14286"
             d="m 354.28571,212.36218 c 0,42.60483 -34.53803,77.14286 -77.14286,77.14286 -42.60482,0 -77.14286,-34.53803 -77.14286,-77.14286 0,-42.60482 34.53804,-77.14286 77.14286,-77.14286 42.60483,0 77.14286,34.53804 77.14286,77.14286 z"
             transform="translate(-451.15172,100.98101)" />
          <path
             style="color:#000000;fill:#6bb427;fill-opacity:1;fill-rule:nonzero;stroke:none;stroke-width:1.76986504;marker:none;visibility:visible;display:inline;overflow:visible;enable-background:accumulate"
             d="m -174.02449,395.4433 c -93.9975,0 -171.33183,71.22361 -181,162.65625 l 34.8125,0 c 9.48663,-72.29381 71.30145,-128.09375 146.1875,-128.09375 74.88605,0 136.72786,55.79994 146.21875,128.09375 l 34.8125,0 C -2.66496,466.66691 -80.02699,395.4433 -174.02449,395.4433 z"
             id="path3585" />
          <path
             id="path3587"
             transform="translate(24.510638,-166.97872)"
             d="m -198.53125,560.25 c -59.20404,0 -107.1875,85.74932 -107.1875,191.5 0,3.23443 0.0706,6.43353 0.15625,9.625 21.5526,-36.70337 61.39132,-61.34375 107.03125,-61.34375 45.63036,0 85.50674,24.62188 107.0625,61.3125 0.08505,-3.18103 0.125,-6.37 0.125,-9.59375 0,-105.75068 -47.98346,-191.5 -107.1875,-191.5 z"
             style="color:#000000;fill:#6bb427;fill-opacity:1;fill-rule:nonzero;stroke:none;stroke-width:0.89422607;marker:none;visibility:visible;display:inline;overflow:visible;enable-background:accumulate" />
        </g>
        <g
           style="fill:#f2a438;fill-opacity:1"
           id="g3625"
           transform="matrix(0,1,-1,0,-7.5368363,1100.3106)">
          <path
             sodipodi:type="arc"
             style="color:#000000;fill:#f2a438;fill-opacity:1;fill-rule:nonzero;stroke:none;stroke-width:0.75;marker:none;visibility:visible;display:inline;overflow:visible;enable-background:accumulate"
             id="path3627"
             sodipodi:cx="277.14285"
             sodipodi:cy="212.36218"
             sodipodi:rx="77.14286"
             sodipodi:ry="77.14286"
             d="m 354.28571,212.36218 c 0,42.60483 -34.53803,77.14286 -77.14286,77.14286 -42.60482,0 -77.14286,-34.53803 -77.14286,-77.14286 0,-42.60482 34.53804,-77.14286 77.14286,-77.14286 42.60483,0 77.14286,34.53804 77.14286,77.14286 z"
             transform="translate(-451.15172,100.98101)" />
          <path
             style="color:#000000;fill:#f2a438;fill-opacity:1;fill-rule:nonzero;stroke:none;stroke-width:1.76986504;marker:none;visibility:visible;display:inline;overflow:visible;enable-background:accumulate"
             d="m -174.02449,395.4433 c -93.9975,0 -171.33183,71.22361 -181,162.65625 l 34.8125,0 c 9.48663,-72.29381 71.30145,-128.09375 146.1875,-128.09375 74.88605,0 136.72786,55.79994 146.21875,128.09375 l 34.8125,0 C -2.66496,466.66691 -80.02699,395.4433 -174.02449,395.4433 z"
             id="path3629" />
          <path
             id="path3631"
             transform="translate(24.510638,-166.97872)"
             d="m -198.53125,560.25 c -59.20404,0 -107.1875,85.74932 -107.1875,191.5 0,3.23443 0.0706,6.43353 0.15625,9.625 21.5526,-36.70337 61.39132,-61.34375 107.03125,-61.34375 45.63036,0 85.50674,24.62188 107.0625,61.3125 0.08505,-3.18103 0.125,-6.37 0.125,-9.59375 0,-105.75068 -47.98346,-191.5 -107.1875,-191.5 z"
             style="color:#000000;fill:#f2a438;fill-opacity:1;fill-rule:nonzero;stroke:none;stroke-width:0.89422607;marker:none;visibility:visible;display:inline;overflow:visible;enable-background:accumulate" />
        </g>
        <g
           style="fill:#5775b1;fill-opacity:1"
           transform="matrix(0,-1,1,0,-1400.566,752.29296)"
           id="g3633">
          <path
             transform="translate(-451.15172,100.98101)"
             d="m 354.28571,212.36218 c 0,42.60483 -34.53803,77.14286 -77.14286,77.14286 -42.60482,0 -77.14286,-34.53803 -77.14286,-77.14286 0,-42.60482 34.53804,-77.14286 77.14286,-77.14286 42.60483,0 77.14286,34.53804 77.14286,77.14286 z"
             sodipodi:ry="77.14286"
             sodipodi:rx="77.14286"
             sodipodi:cy="212.36218"
             sodipodi:cx="277.14285"
             id="path3635"
             style="color:#000000;fill:#5775b1;fill-opacity:1;fill-rule:nonzero;stroke:none;stroke-width:0.75;marker:none;visibility:visible;display:inline;overflow:visible;enable-background:accumulate"
             sodipodi:type="arc" />
          <path
             id="path3637"
             d="m -174.02449,395.4433 c -93.9975,0 -171.33183,71.22361 -181,162.65625 l 34.8125,0 c 9.48663,-72.29381 71.30145,-128.09375 146.1875,-128.09375 74.88605,0 136.72786,55.79994 146.21875,128.09375 l 34.8125,0 C -2.66496,466.66691 -80.02699,395.4433 -174.02449,395.4433 z"
             style="color:#000000;fill:#5775b1;fill-opacity:1;fill-rule:nonzero;stroke:none;stroke-width:1.76986504;marker:none;visibility:visible;display:inline;overflow:visible;enable-background:accumulate" />
          <path
             style="color:#000000;fill:#5775b1;fill-opacity:1;fill-rule:nonzero;stroke:none;stroke-width:0.89422607;marker:none;visibility:visible;display:inline;overflow:visible;enable-background:accumulate"
             d="m -198.53125,560.25 c -59.20404,0 -107.1875,85.74932 -107.1875,191.5 0,3.23443 0.0706,6.43353 0.15625,9.625 21.5526,-36.70337 61.39132,-61.34375 107.03125,-61.34375 45.63036,0 85.50674,24.62188 107.0625,61.3125 0.08505,-3.18103 0.125,-6.37 0.125,-9.59375 0,-105.75068 -47.98346,-191.5 -107.1875,-191.5 z"
             transform="translate(24.510638,-166.97872)"
             id="path3639" />
        </g>
      </g>
    </g>
  </g>
</svg>
